<svg width="20" height="20" viewBox="0 0 20 20" fill="none" xmlns="http://www.w3.org/2000/svg">
<path d="M6.25 9.86092C5.905 9.86092 5.625 9.58092 5.625 9.23592C5.625 6.78591 7.49417 4.79175 9.79167 4.79175C10.1367 4.79175 10.4167 5.07175 10.4167 5.41675C10.4167 5.76175 10.1367 6.10999 9.79167 6.10999C8.18333 6.10999 7.5 7.50008 7.08333 9.23592C7.00222 9.57382 6.75235 9.86092 6.25 9.86092Z" fill="#3E423F"/>
<path d="M17.0833 9.23592C17.0833 5.06091 13.8125 1.66675 9.79167 1.66675C5.77083 1.66675 2.5 5.06175 2.5 9.23592C2.5 13.0734 5.26667 16.2459 8.8375 16.7334L7.42083 18.2584C7.30667 18.3792 7.27667 18.5559 7.34333 18.7084C7.41 18.8601 7.56 18.9584 7.72667 18.9584H11.8575C12.0225 18.9584 12.1725 18.8601 12.2383 18.7084C12.305 18.5559 12.275 18.3792 12.1617 18.2584L10.745 16.7334C14.3158 16.2459 17.0833 13.0734 17.0833 9.23592ZM9.79167 15.2011C6.46 15.2011 4.16667 12.6517 4.16667 9.16675C4.16667 5.68175 6.46 3.12147 9.79167 3.12147C13.1233 3.12147 15.4167 5.75008 15.4167 9.23592C15.4167 12.7217 13.1233 15.2011 9.79167 15.2011Z" fill="#3E423F"/>
</svg>
