<svg width="16" height="16" viewBox="0 0 16 16" fill="none" xmlns="http://www.w3.org/2000/svg">
<g opacity="0.8">
<path d="M8 9.3335C9.10457 9.3335 10 8.43807 10 7.3335C10 6.22893 9.10457 5.3335 8 5.3335C6.89543 5.3335 6 6.22893 6 7.3335C6 8.43807 6.89543 9.3335 8 9.3335Z" stroke="white" stroke-width="1.3" stroke-linecap="round" stroke-linejoin="round"/>
<path d="M11.7714 11.1045L8.94269 13.9331C8.69268 14.1829 8.35375 14.3232 8.00036 14.3232C7.64697 14.3232 7.30803 14.1829 7.05802 13.9331L4.22869 11.1045C3.48284 10.3586 2.97491 9.40827 2.76915 8.37371C2.56338 7.33916 2.66902 6.26681 3.07269 5.29229C3.47637 4.31777 4.15995 3.48483 5.03701 2.89881C5.91407 2.31279 6.9452 2 8.00002 2C9.05485 2 10.086 2.31279 10.963 2.89881C11.8401 3.48483 12.5237 4.31777 12.9274 5.29229C13.331 6.26681 13.4367 7.33916 13.2309 8.37371C13.0251 9.40827 12.5172 10.3586 11.7714 11.1045V11.1045Z" stroke="white" stroke-width="1.3" stroke-linecap="round" stroke-linejoin="round"/>
</g>
</svg>
